<svg xmlns="http://www.w3.org/2000/svg" viewBox="0 0 1000 400" fill="#054ADA">
  <path d="M0 24.1h137.9v23.5H0V24.1zm0 31.3h137.9v23.5H0V55.4zm0 31.3h137.9v23.5H0V86.7zm0 31.3h137.9v23.5H0V118zm0 31.3h137.9v23.5H0v-23.5zm0 31.3h137.9v23.5H0v-23.5zm0 31.3h137.9v23.5H0v-23.5zm0 31.3h137.9v23.5H0v-23.5zm0 31.3h137.9v23.5H0v-23.5zm0 31.3h137.9v23.5H0v-23.5zm0 31.3h137.9v23.5H0v-23.5zm161.5-259.1h122.9v23.5H161.5V24.1zm0 31.3h122.9v23.5H161.5V55.4zm0 31.3h122.9v23.5H161.5V86.7zm0 31.3h122.9v23.5H161.5V118zm0 31.3h122.9v23.5H161.5v-23.5zm0 31.3h122.9v23.5H161.5v-23.5zm0 31.3h122.9v23.5H161.5v-23.5zm0 31.3h122.9v23.5H161.5v-23.5zm0 31.3h122.9v23.5H161.5v-23.5zm0 31.3h122.9v23.5H161.5v-23.5zm0 31.3h122.9v23.5H161.5v-23.5zm146.6-259.1h168.6c44.9 0 73.5 27.3 73.5 65.9 0 25.9-14.2 47.3-38.3 57.5 29.8 9.5 47.3 32.9 47.3 62.4 0 43.3-32.9 70.6-80.2 70.6H308.1V24.1zm23.6 109.4h141.5c31.3 0 49.7-17.4 49.7-43.3 0-25.9-18.4-42.5-49.7-42.5H331.7v85.8zm0 128.7h147.4c34.5 0 55.6-18.4 55.6-46.5 0-28.1-21.1-46.5-55.6-46.5H331.7v93zm330.8-238.1h122.9v23.5H662.5V24.1zm0 31.3h122.9v23.5H662.5V55.4zm0 31.3h122.9v23.5H662.5V86.7zm0 31.3h122.9v23.5H662.5V118zm0 31.3h122.9v23.5H662.5v-23.5zm0 31.3h122.9v23.5H662.5v-23.5zm0 31.3h122.9v23.5H662.5v-23.5zm0 31.3h122.9v23.5H662.5v-23.5zm0 31.3h122.9v23.5H662.5v-23.5zm0 31.3h122.9v23.5H662.5v-23.5zm0 31.3h122.9v23.5H662.5v-23.5zm146.6-259.1h180.8v23.5H809.1V24.1zm0 31.3h180.8v23.5H809.1V55.4zm-38.3 31.3h57.5l70.6 106.3h3.6l70.6-106.3H1000v23.5h-30.5l-85.8 124.6v104.9H809.1V210.8L723.3 86.7h-30.5V86.7zm38.3 162.6h180.8v23.5H809.1v-23.5zm0 31.3h180.8v23.5H809.1v-23.5zm0 31.3h180.8v23.5H809.1v-23.5z"/>
</svg>
