<svg xmlns="http://www.w3.org/2000/svg" viewBox="0 0 3000 2000" fill="#0071C5">
  <path d="M1460 590c-238 0-430 192-430 430s192 430 430 430 430-192 430-430-192-430-430-430zm0 750c-177 0-320-143-320-320s143-320 320-320 320 143 320 320-143 320-320 320z"/>
  <path d="M1720 860c0-55-45-100-100-100s-100 45-100 100v260c0 55 45 100 100 100s100-45 100-100V860z"/>
  <path d="M990 760c-33 0-60 27-60 60v280c0 33 27 60 60 60s60-27 60-60V820c0-33-27-60-60-60zM1200 860c-33 0-60 27-60 60v180c0 33 27 60 60 60s60-27 60-60V920c0-33-27-60-60-60zM1930 860c-33 0-60 27-60 60v180c0 33 27 60 60 60s60-27 60-60V920c0-33-27-60-60-60z"/>
  <text x="500" y="1100" font-family="Arial Black" font-size="300" font-weight="bold" fill="#0071C5">intel</text>
</svg>
