<svg xmlns="http://www.w3.org/2000/svg" viewBox="0 0 1024 1024" fill="url(#metaGradient)">
  <defs>
    <linearGradient id="metaGradient" x1="0%" y1="0%" x2="100%" y2="100%">
      <stop offset="0%" style="stop-color:#0081FB;stop-opacity:1" />
      <stop offset="100%" style="stop-color:#0064E0;stop-opacity:1" />
    </linearGradient>
  </defs>
  <path d="M880 200c-40 0-72 32-72 72v480c0 40 32 72 72 72h80c40 0 72-32 72-72V272c0-40-32-72-72-72h-80zm-288 0c-40 0-72 32-72 72v480c0 40 32 72 72 72h80c40 0 72-32 72-72V272c0-40-32-72-72-72h-80zm-288 0c-40 0-72 32-72 72v480c0 40 32 72 72 72h80c40 0 72-32 72-72V272c0-40-32-72-72-72h-80zm-240 0c-40 0-72 32-72 72v480c0 40 32 72 72 72h80c40 0 72-32 72-72V272c0-40-32-72-72-72H64z"/>
</svg>
