<svg xmlns="http://www.w3.org/2000/svg" viewBox="0 0 2000 600" fill="#1428A0">
  <path d="M350 150c-50 0-90 15-120 45-25 25-40 60-40 105 0 90 60 150 160 150 50 0 90-15 120-45s40-65 40-105c0-90-60-150-160-150zm100 150c0 55-45 100-100 100s-100-45-100-100 45-100 100-100 100 45 100 100z"/>
  <path d="M650 150c-50 0-90 15-115 40-20 20-35 50-35 90v10h50v-10c0-55 40-80 100-80 50 0 85 25 85 60 0 25-15 40-50 50l-60 20c-50 15-80 45-80 95 0 60 50 105 125 105 45 0 80-15 105-40 20-20 30-45 30-75v-10h-50v10c0 50-35 85-85 85-45 0-75-25-75-55 0-20 10-35 40-45l60-20c55-15 90-50 90-100 0-70-60-130-135-130zM950 150c-50 0-90 15-120 45-25 25-40 60-40 105 0 90 60 150 160 150 50 0 90-15 120-45s40-65 40-105c0-90-60-150-160-150zm100 150c0 55-45 100-100 100s-100-45-100-100 45-100 100-100 100 45 100 100zM1200 160h-50v280h50V160zM1450 160c-50 0-90 15-115 40-20 20-35 50-35 90v10h50v-10c0-55 40-80 100-80 50 0 85 25 85 60 0 25-15 40-50 50l-60 20c-50 15-80 45-80 95 0 60 50 105 125 105 45 0 80-15 105-40 20-20 30-45 30-75v-10h-50v10c0 50-35 85-85 85-45 0-75-25-75-55 0-20 10-35 40-45l60-20c55-15 90-50 90-100 0-70-60-130-135-130zM1800 160h-50v190c0 55-30 90-80 90s-80-35-80-90V160h-50v190c0 80 50 140 130 140s130-60 130-140V160zM2000 160h-50v280h50V295l120-135h-65l-90 100-90-100h-65l120 135V160z"/>
</svg>
